<svg viewBox="0 0 280 300" xmlns="http://www.w3.org/2000/svg" aria-label="Emblema Imperial TS — Tetê Santos">
  <style>@import url('https://fonts.googleapis.com/css2?family=Fraunces:opsz,wght@9..144,500;9..144,600&amp;family=Spectral:wght@500&amp;display=swap');</style>
  <rect width="280" height="300" fill="#5A2730"/>
  <g fill="none" stroke="#C2A26B" stroke-width="1.5" stroke-linecap="round">
    <path d="M104 60 H176"/><path d="M108 66 H172"/>
    <path d="M112 60 L112 45"/><path d="M168 60 L168 45"/>
    <path d="M112 45 Q126 31 140 31"/><path d="M168 45 Q154 31 140 31"/>
    <path d="M140 17 V31"/><path d="M134 23 H146"/>
  </g>
  <circle cx="112" cy="45" r="3" fill="#C2A26B"/><circle cx="168" cy="45" r="3" fill="#C2A26B"/>
  <circle cx="140" cy="31" r="3.2" fill="#C2A26B"/>
  <circle cx="122" cy="60" r="1.8" fill="#C2A26B"/><circle cx="140" cy="60" r="1.8" fill="#C2A26B"/><circle cx="158" cy="60" r="1.8" fill="#C2A26B"/>
  <rect x="46" y="78" width="188" height="194" fill="none" stroke="#C2A26B" stroke-width="1.6"/>
  <rect x="54" y="86" width="172" height="178" fill="none" stroke="#C2A26B" stroke-width="0.7"/>
  <path d="M68 95 l4 5 -4 5 -4 -5 Z" fill="#C2A26B"/><path d="M212 95 l4 5 -4 5 -4 -5 Z" fill="#C2A26B"/>
  <path d="M68 245 l4 5 -4 5 -4 -5 Z" fill="#C2A26B"/><path d="M212 245 l4 5 -4 5 -4 -5 Z" fill="#C2A26B"/>
  <text x="140" y="169" text-anchor="middle" font-family="Fraunces, Georgia, serif" font-weight="600" font-size="80" fill="#F2EBE0" letter-spacing="1">TS</text>
  <path d="M84 189 H128" stroke="#C2A26B" stroke-width="1"/><path d="M152 189 H196" stroke="#C2A26B" stroke-width="1"/>
  <path d="M140 183 l5 6 -5 6 -5 -6 Z" fill="#C2A26B"/>
  <text x="140" y="217" text-anchor="middle" font-family="Fraunces, Georgia, serif" font-weight="500" font-size="18" fill="#F2EBE0" letter-spacing="3.5">TETÊ SANTOS</text>
  <text x="140" y="238" text-anchor="middle" font-family="Spectral, Georgia, serif" font-size="9.5" letter-spacing="3" fill="#C2A26B">IMÓVEIS DE LUXO</text>
</svg>
